<svg xmlns="http://www.w3.org/2000/svg" viewBox="0 0 24 24"><style>.st1{fill:#FFFFFF}</style><path class="st1" d="M18.01 3.197l-.707-.707L12 7.793 6.697 2.49l-.707.707L11.293 8.5 5.99 13.803l.707.707L12 9.207l5.303 5.303.707-.707L12.707 8.5zM8.427 17.481a6.59 6.59 0 01-.422.229c-.323.163-.973.471-1.44.78-.436.282-.71.589-.71.947 0 .382.363.605 1.097.605a7.99 7.99 0 001.588-.17l-.004.557c-.387.07-.938.125-1.564.125-.948 0-1.648-.279-1.648-1.063 0-.521.333-.922.834-1.28a21.89 21.89 0 01-.7-1.494l.492-.198c.193.526.432 1.027.64 1.414.432-.258.918-.502 1.171-.646.164-.094.283-.162.397-.257l.269.451zM11.114 16.554a7.716 7.716 0 00-.055.56c-.02.546-.059 1.678-.059 2.362 0 .517.328.696.749.696.864 0 1.375-.488 1.727-1.014l.353.432c-.328.467-.988 1.102-2.09 1.102-.75 0-1.245-.323-1.245-1.137 0-.7.05-1.965.05-2.441 0-.203-.02-.401-.055-.565l.625.005zm1.802 1.186l-.357.153a5.257 5.257 0 00-.462-.803l.347-.15c.134.194.357.561.472.8zm.67-.283l-.353.168a5.574 5.574 0 00-.476-.784l.342-.16c.134.185.367.547.486.776zM18.16 16.98c-.1.065-.215.14-.303.204-.253.179-.849.7-1.197.988a1.83 1.83 0 01.58-.085c.825 0 1.436.506 1.436 1.191 0 .789-.631 1.35-1.733 1.35-.68 0-1.136-.308-1.136-.75 0-.362.332-.7.813-.7.61 0 .963.393 1.033.864.333-.149.516-.411.516-.77 0-.461-.467-.788-1.067-.788-.784 0-1.25.367-1.832.982l-.362-.367c.383-.312.998-.83 1.286-1.067.273-.228.839-.7 1.087-.913-.258.01-1.097.045-1.355.06-.125.01-.253.02-.363.034l-.015-.511c.125.015.274.026.393.026.257 0 1.37-.031 1.638-.056.169-.02.257-.03.312-.05l.268.359zm-.959 3.18c-.04-.361-.253-.6-.58-.6-.204 0-.353.12-.353.274 0 .214.253.347.586.347.124 0 .238-.005.347-.02z"/></svg>
