<svg xmlns="http://www.w3.org/2000/svg" viewBox="0 0 200 40"><style>.st0{fill:#3c3c32}</style><path class="st0" d="M1.8 13.9c1.6.7 3.2 1.5 4.8 2.4l1.2.5-1.6 2.4-.9-.9c-1.3-1.1-2.8-2.2-4.2-3.1l-1-.4.9-1.4.8.5zm7.8 8.3L9 23.4C7.5 27.2 5.7 31 3.7 34.6l-.6 1.2-2.7-1.6 1-1c2.4-3.3 4.5-6.8 6.3-10.5l.5-1.3 1.4.8zM3.1 4.9c1.6.8 3.1 1.7 4.6 2.7l1 .6L7 10.5l-.8-1c-1-1-1.3-1.3-3.8-3.4l-1-.5 1-1.2.7.5zM14 19.2v.3c-.1 6.8-1.6 11.5-4.7 15.6l-.7 1.2-1.5-1 .9-1c2.5-3.6 3.5-8.2 3.5-15.9v-7.2c0-1 0-1.9-.2-2.9.9.1 1.8.1 2.8.1h6.2V5.6c0-.7-.1-1.5-.2-2.2h3c-.1.7-.2 1.5-.2 2.2v2.9h6.3c1.2 0 2.4 0 3.6-.1v1.1c-.9 1.9-2 3.7-3.4 5.4l-.4.9-1.4-.7.6-.9c.6-1.4 1.1-2.8 1.5-4.3h-6.8v7.8h3.9c1.2 0 2.3 0 3.5-.1v1.1c-1.1 4-3.2 7.6-6 10.6 2.2 1.7 4.8 2.9 7.4 3.8l1.5.4-1.6 2.9-1.3-.8c-2.8-1.1-5.4-2.7-7.7-4.6-2.5 2.1-5.3 3.7-8.3 5l-1.3.6-.9-1.3 1.4-.5c2.7-1.5 5.3-3.3 7.5-5.5-2.7-2.9-4.5-6.4-5.4-10.2l-1.6.1zm0-9.3v7.8h6.3V9.9H14zm3.2 9.3c1.1 3.3 2.9 6.4 5.5 8.8 2.2-2.5 3.8-5.5 4.8-8.8H17.2zM41.2 25.7c0 1.2.3 1.4 2.7 1.4 2.3 0 3.2-.3 3.5-.9s.4-1.9.5-4.4l-.1-1.8 1.6.4-.2 1.4v.8c.1 1.8.1 2.2.1 2.9 0 2.2-.2 2.9-1.1 3.4-1.6.4-3.2.6-4.8.5-4.2 0-4.8-.4-4.8-3.1V15.6l-2.6.5-1.7.4-.3-1.6 1.7-.2 2.8-.6V6.9c0-.7-.1-1.5-.2-2.2h3c-.1.7-.2 1.5-.2 2.2v6.6l7-1.4 1.7-.5.4 1.7-1.7.3-7.3 1.6v10.5zm8.6-17.2c-.7 0-1.5 0-2.2.1V6.8c.7.2 1.5.2 2.2.2h12.7c1.1 0 2.3 0 3.4-.1V8c0 10.7-.4 19.8-1.2 24.5-.4 2.4-1 3.1-2.4 3.1-1.7-.1-3.4-.4-5-.8l-1.8-.3-.2-1.4c2 .2 4.2.4 5.4.4s1.2-.2 1.5-2.2c.8-5 1.1-11.6 1.1-22.9H57c-.1 14.2-2.3 20.5-9.2 26.6l-.9.8-1.3-1.2 1.1-.7c5.5-5.4 7.5-11.7 7.7-24V8.5h-4.6zM98.3 12.3v6.5c0 6.4-.2 10.3-.5 11.9-.4 2-1.4 3-3 3-2.1-.2-4.2-.8-6.1-1.7-.6-.3-1.3-.4-2-.4l.6-1.7c2 .9 4.2 1.5 6.4 1.7 1 0 1.4-.5 1.6-1.9.4-4.1.5-8.2.4-12.3v-3.6h-11c-.1 9.6-3.3 15.1-11.5 19.4-.5.2-1 .5-1.5.9l-.9-1.5C78 29.6 82 23 82 13.8h-9.2c-.6 0-1.3.1-1.9.2v-1.9c.6.1 1.2.2 1.8.2H82v-5c0-.6 0-1.3-.1-1.9h3c-.1.6-.2 1.2-.2 1.8v5h13.6zM101.5 31.6c5.1-2.9 9.3-12.7 9.5-22.2l3 .7c-.2.6-.3 1.3-.4 1.9-1.3 9.1-4 14.5-9.6 19.6-.5.4-.9.8-1.3 1.3l-1.2-1.3zm29.4.8c-.9-6.6-5.8-18.2-9.5-22.2L123 9c.1.1.2.3.3.4.1.1.3.4.8 1.1 4.2 5.6 7.3 11.9 9.2 18.7.1.6.5 1.6.6 1.9l-3 1.3zm-1.7-27.5v4.6h-1.8V4.9h1.8zm4 0v4.6h-1.8V4.9h1.8zM148.8 17.3s-.3-.3-.7-.9c-2.7-3-7.6-6.6-9.7-7.3l1.1-1.5c.6.4 1.3.8 2 1.1 2.9 1.4 5.5 3.1 8 5.1.6.5.9.7 1.3 1l-2 2.5zm-9.5 13.8h.7c4.2-.3 8.3-1.4 12.1-3.2 4-1.9 7.3-5 9.6-8.9 1.1-1.7 1.9-3.6 2.4-5.6V13l1.6.8c-.4.7-.7 1.4-.9 2.1-3.4 10.1-10.5 15.6-22.7 17.5-.6.1-1.3.2-1.9.5l-.9-2.8zM184.1 5.6c0-.7-.1-1.5-.2-2.2h3c-.1.7-.2 1.5-.2 2.2v2.5h11c.8 0 1.5 0 2.3-.1v1.8c-.7-.1-1.5-.1-2.2-.1H174v8.8c0 7.2-1.2 12-4.4 16.7l-.6 1.2-1.4-.7.8-1.1c2.1-4.7 2.9-9.1 2.9-16.1v-7.4c0-1 0-2-.2-2.9.9.1 1.8.1 2.8.1h10.2V5.6zM195 24c.9 0 1.9 0 2.8-.1-.1.9-.2 1.8-.2 2.8V33c0 .9 0 1.9.2 2.8-.8-.1-1.4-.1-2.2-.1H179c-.9 0-1.9 0-2.8.1.1-.9.2-1.8.2-2.8v-6.3c0-.9 0-1.9-.2-2.8.9.1 1.8.1 2.8.1h5.8V12.8c0-.7-.1-1.5-.2-2.2h3.1c-.1.7-.2 1.5-.2 2.2v3.5h9.5c.7 0 1.5 0 2.2-.1V18c-.7-.1-1.5-.2-2.2-.1h-9.5V24h7.5zm-16 1.5v8.7h15.9v-8.7H179z"/></svg>
