<svg xmlns="http://www.w3.org/2000/svg" viewBox="0 0 24 24"><style>.st1{fill:#FFFFFF}</style><path class="st1" d="M4 13h16v-1H4v1zm0-4h16V8H4v1zm0-5v1h16V4H4zM7.1 16.7c-.1.3-.6 1.4-.9 1.8.4.3.8.8 1.2 1.1l-.4.5c-.3-.4-.7-.8-1.1-1.1-.4.5-1 1.1-1.9 1.5l-.5-.3c.8-.4 1.4-.9 2-1.5-.3-.3-.8-.7-1.4-.9l.3-.4c.4.3.9.6 1.4.9.3-.4.6-1.4.7-1.7l.6.1zM8.4 19.6h4v.6h-4v-.6zm.5-2.5h3v.6h-3v-.6zM16.4 19.8h.4v.5h-3.4v-.5h2.1c.1-.4.2-1.3.2-1.5H13.9v-.5H16l.3.2v.2c0 .3-.2 1.3-.3 1.7-.1-.1.4-.1.4-.1zM17.4 18.3h3.1v.6h-3.1v-.6z"/></svg>
